<svg width="200" height="200" viewBox="0 0 200 200" xmlns="http://www.w3.org/2000/svg">
  <!-- Head silhouette -->
  <path d="M50 60 C50 30, 80 20, 100 20 C120 20, 150 30, 150 60 L150 120 C150 140, 140 150, 130 160 L120 170 C110 175, 90 175, 80 170 L70 160 C60 150, 50 140, 50 120 Z" fill="#1e3a5f"/>
  
  <!-- Magnifying glass circle -->
  <circle cx="100" cy="80" r="35" fill="#2563eb" stroke="#ffffff" stroke-width="4"/>
  
  <!-- Network/connection nodes inside magnifying glass -->
  <g fill="#ffffff">
    <!-- Center node -->
    <circle cx="100" cy="80" r="4"/>
    
    <!-- Surrounding nodes -->
    <circle cx="85" cy="70" r="3"/>
    <circle cx="115" cy="70" r="3"/>
    <circle cx="90" cy="90" r="3"/>
    <circle cx="110" cy="90" r="3"/>
    <circle cx="100" cy="95" r="3"/>
    <circle cx="105" cy="65" r="3"/>
    
    <!-- Connection lines -->
    <g stroke="#ffffff" stroke-width="2" fill="none">
      <line x1="100" y1="80" x2="85" y2="70"/>
      <line x1="100" y1="80" x2="115" y2="70"/>
      <line x1="100" y1="80" x2="90" y2="90"/>
      <line x1="100" y1="80" x2="110" y2="90"/>
      <line x1="100" y1="80" x2="100" y2="95"/>
      <line x1="100" y1="80" x2="105" y2="65"/>
      <line x1="85" y1="70" x2="90" y2="90"/>
      <line x1="115" y1="70" x2="110" y2="90"/>
      <line x1="105" y1="65" x2="115" y2="70"/>
    </g>
  </g>
  
  <!-- Magnifying glass handle -->
  <path d="M125 105 L140 120 C142 122, 142 125, 140 127 L135 132 C133 134, 130 134, 128 132 L113 117" 
        fill="#ffffff" stroke="#1e3a5f" stroke-width="2"/>
</svg>
